<?xml version="1.0" standalone="no"?><!DOCTYPE svg PUBLIC "-//W3C//DTD SVG 1.1//EN" "http://www.w3.org/Graphics/SVG/1.1/DTD/svg11.dtd"><svg t="1739977279931" class="icon" viewBox="0 0 1024 1024" version="1.1" xmlns="http://www.w3.org/2000/svg" p-id="4983" xmlns:xlink="http://www.w3.org/1999/xlink" width="200" height="200"><path d="M725.333333 42.666667H128a85.333333 85.333333 0 0 0-85.333333 85.333333v597.333333a85.333333 85.333333 0 0 0 85.333333 85.333334h597.333333a85.333333 85.333333 0 0 0 85.333334-85.333334V128a85.333333 85.333333 0 0 0-85.333334-85.333333z m-168.106666 410.453333l-165.973334 110.933333A32 32 0 0 1 341.333333 537.6V315.733333a32 32 0 0 1 49.92-26.453333l165.973334 110.933333a31.573333 31.573333 0 0 1 0 52.906667zM896 213.333333v597.333334a85.333333 85.333333 0 0 1-85.333333 85.333333H213.333333a85.333333 85.333333 0 0 0 85.333334 85.333333h512a170.666667 170.666667 0 0 0 170.666666-170.666666V298.666667a85.333333 85.333333 0 0 0-85.333333-85.333334z" p-id="4984"></path></svg>